<?xml version="1.0" encoding="UTF-8" standalone="no"?>
<!-- Created with Inkscape (http://www.inkscape.org/) -->

<svg
   width="1500"
   height="1500"
   viewBox="0 0 396.87499 396.87501"
   version="1.1"
   id="svg5"
   inkscape:version="1.1.2 (b8e25be833, 2022-02-05)"
   sodipodi:docname="rendezvous-icon.svg"
   inkscape:export-filename="/home/redouane/Pictures/rendezvous-icons/rendezvous-icon-#707019.png"
   inkscape:export-xdpi="96"
   inkscape:export-ydpi="96"
   xmlns:inkscape="http://www.inkscape.org/namespaces/inkscape"
   xmlns:sodipodi="http://sodipodi.sourceforge.net/DTD/sodipodi-0.dtd"
   xmlns="http://www.w3.org/2000/svg"
   xmlns:svg="http://www.w3.org/2000/svg">
  <sodipodi:namedview
     id="namedview7"
     pagecolor="#505050"
     bordercolor="#eeeeee"
     borderopacity="1"
     inkscape:pageshadow="0"
     inkscape:pageopacity="0"
     inkscape:pagecheckerboard="0"
     inkscape:document-units="px"
     showgrid="false"
     units="px"
     inkscape:zoom="0.3108143"
     inkscape:cx="-114.21611"
     inkscape:cy="765.73052"
     inkscape:current-layer="layer1" />
  <defs
     id="defs2" />
  <g
     inkscape:label="Layer 1"
     inkscape:groupmode="layer"
     id="layer1">
    <g
       id="g99"
       transform="matrix(1.8151058,0,0,1.8151058,-36.707544,-155.65735)"
       style="fill:#ffffff;fill-opacity:1">
      <path
         style="fill:#ffffff;fill-opacity:1;stroke-width:0.264583"
         d="m 48.451029,263.28208 -0.504029,-0.59531 0.595313,0.50403 c 0.559446,0.47366 0.715761,0.68659 0.504029,0.68659 -0.05021,0 -0.318098,-0.26789 -0.595313,-0.59531 z m 158.775141,-9.19427 c 0.71666,-0.7276 1.36256,-1.32292 1.43532,-1.32292 0.0728,0 -0.45407,0.59532 -1.17074,1.32292 -0.71666,0.72761 -1.36255,1.32292 -1.43531,1.32292 -0.0728,0 0.45407,-0.59531 1.17073,-1.32292 z M 48.343875,254.2525 c 0,-0.0549 0.20836,-0.2633 0.463021,-0.46302 0.419645,-0.32911 0.429004,-0.31975 0.0999,0.0999 -0.345643,0.44073 -0.562917,0.58089 -0.562917,0.36313 z m 19.116147,-2.21516 c 8.258307,-0.0388 21.771901,-0.0388 30.030208,0 8.25831,0.0388 1.501511,0.0705 -15.015104,0.0705 -16.516615,0 -23.273412,-0.0317 -15.015104,-0.0705 z m 129.579688,-1.78599 c 0.93748,-0.94588 1.76404,-1.71979 1.8368,-1.71979 0.0728,0 -0.63474,0.77391 -1.57222,1.71979 -0.93747,0.94589 -1.76403,1.71979 -1.83679,1.71979 -0.0728,0 0.63473,-0.7739 1.57221,-1.71979 z m -35.65203,-1.5875 c 0.003,-0.58208 0.0571,-0.78905 0.12041,-0.45993 0.0633,0.32911 0.0609,0.80536 -0.005,1.05833 -0.0662,0.25297 -0.11801,-0.0163 -0.11507,-0.5984 z m 21.21979,-4.43177 -1.04588,-1.12448 1.12447,1.04589 c 0.61847,0.57523 1.12448,1.08125 1.12448,1.12448 0,0.20018 -0.23041,-1.3e-4 -1.20307,-1.04589 z m 35.81388,-13.60834 c 0.191,-0.0764 0.4192,-0.067 0.50712,0.0209 0.0879,0.0879 -0.0684,0.15046 -0.34726,0.13897 -0.30823,-0.0127 -0.37092,-0.0754 -0.15986,-0.15985 z m -46.51706,-7.85666 c 0,-0.0549 0.20836,-0.2633 0.46302,-0.46302 0.41965,-0.32911 0.42901,-0.31975 0.0999,0.0999 -0.34564,0.44073 -0.56292,0.58088 -0.56292,0.36312 z m -10.05416,-8.76364 c 0.34177,-0.36381 0.68094,-0.66146 0.7537,-0.66146 0.0728,0 -0.14734,0.29765 -0.48912,0.66146 -0.34178,0.3638 -0.68094,0.66146 -0.7537,0.66146 -0.0728,0 0.14734,-0.29766 0.48912,-0.66146 z m 1.5875,-1.55511 c 0,-0.0549 0.20836,-0.2633 0.46302,-0.46302 0.41964,-0.32911 0.429,-0.31975 0.0999,0.0999 -0.34564,0.44073 -0.56291,0.58089 -0.56291,0.36312 z M 77.403185,172.92688 c 18.674755,-0.0375 49.154755,-0.0375 67.733335,10e-6 18.57858,0.0375 3.29923,0.0682 -33.9541,0.0682 -37.253336,-1e-5 -52.45399,-0.0307 -33.779235,-0.0682 z m 105.084445,-1.48896 c 0,-0.0549 0.20836,-0.2633 0.46302,-0.46302 0.41964,-0.32911 0.429,-0.31975 0.0999,0.0999 -0.34564,0.44073 -0.56291,0.58089 -0.56291,0.36313 z m -143.668755,-9.525 c 0,-0.0549 0.20836,-0.2633 0.463021,-0.46302 0.419644,-0.32911 0.429002,-0.31975 0.09989,0.0999 -0.345644,0.44073 -0.562916,0.58089 -0.562916,0.36313 z M 161.43596,124.70656 c 0,-3.71078 0.0372,-5.22882 0.0827,-3.37343 0.0455,1.85539 0.0455,4.89148 0,6.74687 -0.0455,1.85539 -0.0827,0.33734 -0.0827,-3.37344 z m 36.94756,5.6665 c 0.0127,-0.30823 0.0754,-0.37092 0.15985,-0.15986 0.0764,0.191 0.067,0.4192 -0.0209,0.50712 -0.0879,0.0879 -0.15045,-0.0683 -0.13896,-0.34726 z m -4.00967,-8.77535 -0.64143,-0.72761 0.7276,0.64144 c 0.40019,0.35279 0.72761,0.68021 0.72761,0.7276 0,0.20751 -0.21426,0.0386 -0.81378,-0.64143 z"
         id="path113" />
      <path
         style="fill:#ffffff;fill-opacity:1;stroke-width:0.264583"
         d="m 192.75677,266.60707 c 0.19099,-0.0764 0.4192,-0.067 0.50712,0.0209 0.0879,0.0879 -0.0684,0.15045 -0.34727,0.13896 -0.30822,-0.0127 -0.37092,-0.0754 -0.15985,-0.15985 z m -5.91346,-3.85415 -1.31297,-1.38907 1.38906,1.31297 c 1.29074,1.22004 1.5104,1.46516 1.31297,1.46516 -0.0419,0 -0.66693,-0.62508 -1.38906,-1.38906 z m -71.03068,1.02458 c 0,-0.0549 0.20836,-0.2633 0.46302,-0.46302 0.41964,-0.32911 0.429,-0.31975 0.0999,0.0999 -0.34564,0.44073 -0.56291,0.58089 -0.56291,0.36313 z m 0.23083,-9.88813 c -0.32911,-0.41964 -0.31975,-0.429 0.0999,-0.0999 0.25466,0.19972 0.46302,0.40808 0.46302,0.46302 0,0.21776 -0.21728,0.0776 -0.56292,-0.36313 z m 78.07478,-0.66145 c 0.64876,-0.69123 1.21431,-1.25678 1.25677,-1.25678 0.19867,0 -0.0114,0.23756 -1.17957,1.33398 l -1.25677,1.17957 z m 16.54751,-2.57969 c 0.71667,-0.72761 1.36256,-1.32292 1.43532,-1.32292 0.0728,0 -0.45407,0.59531 -1.17073,1.32292 -0.71667,0.7276 -1.36256,1.32291 -1.43532,1.32291 -0.0728,0 0.45407,-0.59531 1.17073,-1.32291 z m 1.71979,-1.6874 c 0,-0.0549 0.20836,-0.2633 0.46303,-0.46302 0.41964,-0.32911 0.429,-0.31975 0.0999,0.0999 -0.34564,0.44073 -0.56292,0.58088 -0.56292,0.36312 z m -26.73195,-1.68604 -1.44617,-1.52135 1.52135,1.44617 c 0.83675,0.79539 1.52136,1.48 1.52136,1.52135 0,0.19639 -0.253,-0.0328 -1.59654,-1.44617 z m 28.58404,-14.45354 c 0,-0.0549 0.20836,-0.2633 0.46302,-0.46302 0.41964,-0.32911 0.429,-0.31975 0.0999,0.0999 -0.34564,0.44073 -0.56291,0.58089 -0.56291,0.36313 z m -15.7467,-68.42719 c 0,-18.5539 0.0316,-26.14414 0.0701,-16.86718 0.0386,9.27695 0.0386,24.45742 0,33.73437 -0.0385,9.27695 -0.0701,1.68672 -0.0701,-16.86719 z M 60.630263,110.94823 c 0,-3.8563 0.03699,-5.43388 0.0822,-3.50573 0.04521,1.92815 0.04521,5.08331 0,7.01146 -0.04521,1.92815 -0.0822,0.35057 -0.0822,-3.50573 z m 13.49375,-0.26458 c 0,-3.85631 0.03699,-5.43388 0.0822,-3.50573 0.04521,1.92815 0.04521,5.0833 0,7.01146 -0.04521,1.92815 -0.0822,0.35057 -0.0822,-3.50573 z m -2.125067,-11.178649 -0.504029,-0.595313 0.595313,0.504029 c 0.559446,0.473661 0.715761,0.686593 0.504029,0.686593 -0.05021,0 -0.318098,-0.267887 -0.595313,-0.595309 z"
         id="path111" />
      <path
         style="fill:#ffffff;fill-opacity:1;stroke-width:0.264583"
         d="m 163.2802,284.71333 -0.50403,-0.59531 0.59531,0.50403 c 0.55945,0.47366 0.71576,0.68659 0.50403,0.68659 -0.0502,0 -0.3181,-0.26789 -0.59531,-0.59531 z m -1.32292,-1.32292 -0.50403,-0.59531 0.59531,0.50403 c 0.55945,0.47366 0.71577,0.6866 0.50403,0.6866 -0.0502,0 -0.31809,-0.26789 -0.59531,-0.59532 z m 61.67306,-7.87135 c 0.26339,-0.29104 0.53842,-0.52917 0.61118,-0.52917 0.0728,0 -0.0832,0.23813 -0.3466,0.52917 -0.26339,0.29104 -0.53842,0.52917 -0.61118,0.52917 -0.0728,0 0.0832,-0.23813 0.3466,-0.52917 z m 1.5875,-1.5875 c 0.26339,-0.29104 0.53842,-0.52917 0.61118,-0.52917 0.0728,0 -0.0832,0.23813 -0.3466,0.52917 -0.26339,0.29104 -0.53842,0.52917 -0.61118,0.52917 -0.0728,0 0.0832,-0.23813 0.3466,-0.52917 z m -41.02037,-13.82448 -1.31297,-1.38906 1.38906,1.31297 c 1.29075,1.22004 1.51041,1.46515 1.31298,1.46515 -0.0419,0 -0.66693,-0.62507 -1.38907,-1.38906 z m 4.8957,-9.39271 -1.44617,-1.52135 1.52136,1.44617 c 0.83674,0.79539 1.52135,1.48 1.52135,1.52135 0,0.19639 -0.253,-0.0328 -1.59654,-1.44617 z m 25.67362,-4.16718 c 0.93748,-0.94589 1.76404,-1.7198 1.8368,-1.7198 0.0728,0 -0.63474,0.77391 -1.57221,1.7198 -0.93748,0.94588 -1.76404,1.71979 -1.8368,1.71979 -0.0728,0 0.63474,-0.77391 1.57221,-1.71979 z m -2.92147,-11.31094 c 0.64876,-0.69123 1.21431,-1.25677 1.25677,-1.25677 0.19867,0 -0.0114,0.23755 -1.17957,1.33397 l -1.25677,1.17957 z m 11.6945,0.33073 c 0,-0.3638 0.0601,-0.51263 0.13345,-0.33073 0.0734,0.1819 0.0734,0.47956 0,0.66146 -0.0734,0.1819 -0.13345,0.0331 -0.13345,-0.33073 z M 213.44388,233.615 c 0,-0.0549 0.20836,-0.2633 0.46302,-0.46302 0.41964,-0.32911 0.429,-0.31975 0.0999,0.0999 -0.34564,0.44073 -0.56291,0.58089 -0.56291,0.36313 z M 67.856897,225.04984 c 8.040026,-0.0389 21.196432,-0.0389 29.236458,0 8.040025,0.0389 1.461823,0.0707 -14.618229,0.0707 -16.080052,0 -22.658256,-0.0318 -14.618229,-0.0707 z M 39.04971,171.07479 c -0.329108,-0.41964 -0.319749,-0.429 0.0999,-0.0999 0.254661,0.19972 0.46302,0.40808 0.46302,0.46302 0,0.21776 -0.217272,0.0776 -0.562915,-0.36313 z M 159.43513,99.637293 c -0.32911,-0.419644 -0.31975,-0.429003 0.0999,-0.0999 0.44073,0.345643 0.58089,0.562907 0.36313,0.562907 -0.0549,0 -0.2633,-0.208351 -0.46302,-0.463012 z"
         id="path109" />
      <path
         style="fill:#ffffff;fill-opacity:1;stroke-width:0.264583"
         d="m 46.512681,258.69597 c 0.0127,-0.30822 0.07539,-0.37092 0.159851,-0.15985 0.07643,0.19099 0.06703,0.4192 -0.02088,0.50712 -0.08792,0.0879 -0.150453,-0.0684 -0.138964,-0.34727 z m 134.907579,-1.36701 -1.44617,-1.52136 1.52135,1.44617 c 0.83674,0.7954 1.52135,1.48001 1.52135,1.52136 0,0.19638 -0.253,-0.0328 -1.59653,-1.44617 z m 10.44343,-3.83646 -0.7771,-0.8599 0.85989,0.77711 c 0.80155,0.72437 0.98151,0.94268 0.77711,0.94268 -0.0455,0 -0.43249,-0.38695 -0.8599,-0.85989 z m 26.34269,-10.3849 c 0.93747,-0.94588 1.76403,-1.71979 1.83679,-1.71979 0.0728,0 -0.63473,0.77391 -1.57221,1.71979 -0.93748,0.94589 -1.76403,1.71979 -1.83679,1.71979 -0.0728,0 0.63473,-0.7739 1.57221,-1.71979 z m -9.39271,-4.89479 c 1.01084,-1.01864 1.89742,-1.85208 1.97018,-1.85208 0.0728,0 -0.69476,0.83344 -1.7056,1.85208 -1.01084,1.01865 -1.89742,1.85208 -1.97018,1.85208 -0.0728,0 0.69476,-0.83343 1.7056,-1.85208 z M 46.512681,218.47931 c 0.0127,-0.30823 0.07539,-0.37092 0.159851,-0.15986 0.07643,0.191 0.06703,0.4192 -0.02088,0.50712 -0.08792,0.0879 -0.150453,-0.0684 -0.138964,-0.34726 z M 184.91065,166.24615 c 0,-0.36381 0.0601,-0.51263 0.13346,-0.33073 0.0734,0.1819 0.0734,0.47955 0,0.66145 -0.0734,0.18191 -0.13346,0.0331 -0.13346,-0.33072 z M 74.124013,124.70656 c 0,-3.8563 0.03699,-5.43388 0.0822,-3.50573 0.04521,1.92815 0.04521,5.08331 0,7.01146 -0.04521,1.92815 -0.0822,0.35058 -0.0822,-3.50573 z"
         id="path107" />
      <path
         style="fill:#ffffff;fill-opacity:1;stroke-width:0.264583"
         d="m 173.06978,275.45291 -0.50403,-0.59531 0.59531,0.50403 c 0.32743,0.27722 0.59532,0.54511 0.59532,0.59531 0,0.21174 -0.21294,0.0554 -0.6866,-0.50403 z m -1.7284,-1.71979 c -0.32911,-0.41964 -0.31975,-0.429 0.0999,-0.0999 0.25466,0.19972 0.46302,0.40808 0.46302,0.46302 0,0.21776 -0.21727,0.0776 -0.56291,-0.36313 z m 27.15354,-10.64948 c 1.15734,-1.16416 2.16378,-2.11666 2.23654,-2.11666 0.0728,0 -0.81462,0.9525 -1.97196,2.11666 -1.15734,1.16417 -2.16378,2.11667 -2.23654,2.11667 -0.0728,0 0.81462,-0.9525 1.97196,-2.11667 z m -80.28015,-4.38767 c 0.0127,-0.30822 0.0754,-0.37092 0.15985,-0.15985 0.0764,0.19099 0.067,0.4192 -0.0209,0.50712 -0.0879,0.0879 -0.15045,-0.0684 -0.13896,-0.34727 z m 60.56869,-3.9467 c -0.64268,-0.65484 -1.10898,-1.19063 -1.03622,-1.19063 0.0728,0 0.65812,0.53579 1.3008,1.19063 0.64268,0.65484 1.10898,1.19062 1.03622,1.19062 -0.0728,0 -0.65812,-0.53578 -1.3008,-1.19062 z m 26.45833,-12.96458 c 0.93748,-0.94589 1.76404,-1.7198 1.8368,-1.7198 0.0728,0 -0.63474,0.77391 -1.57221,1.7198 -0.93748,0.94588 -1.76404,1.71979 -1.8368,1.71979 -0.0728,0 0.63474,-0.77391 1.57221,-1.71979 z m 14.81667,-0.49677 c 0,-0.055 0.20836,-0.2633 0.46302,-0.46303 0.41965,-0.3291 0.42901,-0.31974 0.0999,0.0999 -0.34565,0.44073 -0.56292,0.58089 -0.56292,0.36313 z m 1.5875,-1.6199 c 0.34178,-0.3638 0.68094,-0.66146 0.7537,-0.66146 0.0728,0 -0.14734,0.29766 -0.48912,0.66146 -0.34177,0.3638 -0.68093,0.66146 -0.7537,0.66146 -0.0728,0 0.14735,-0.29766 0.48912,-0.66146 z m 2.76148,-17.13177 -0.7771,-0.8599 0.85989,0.77711 c 0.80155,0.72437 0.98151,0.94268 0.77711,0.94268 -0.0455,0 -0.43249,-0.38695 -0.8599,-0.85989 z m -176.063565,-8.765 c 0,-0.0549 0.20836,-0.2633 0.463021,-0.46302 0.419645,-0.32911 0.429004,-0.31975 0.0999,0.0999 -0.345643,0.44073 -0.562917,0.58089 -0.562917,0.36313 z m 12.286388,-88.8001 c 0,-3.85631 0.03699,-5.43388 0.0822,-3.50573 0.04521,1.92815 0.04521,5.0833 0,7.01146 -0.04521,1.92815 -0.0822,0.35057 -0.0822,-3.50573 z m -33.056179,-3.175 c 0.263389,-0.29105 0.53842,-0.52917 0.61118,-0.52917 0.07276,0 -0.08321,0.23812 -0.346597,0.52917 -0.263389,0.29104 -0.538421,0.52916 -0.611181,0.52916 -0.07276,0 0.08321,-0.23812 0.346598,-0.52916 z M 161.43596,110.94823 c 0,-3.71078 0.0372,-5.22883 0.0827,-3.37344 0.0455,1.85539 0.0455,4.89149 0,6.74688 -0.0455,1.85539 -0.0827,0.33734 -0.0827,-3.37344 z"
         id="path105" />
      <path
         style="fill:#ffffff;fill-opacity:1;stroke-width:0.264583"
         d="m 172.13513,274.52687 c -0.32911,-0.41964 -0.31975,-0.429 0.0999,-0.0999 0.25466,0.19972 0.46302,0.40808 0.46302,0.46302 0,0.21776 -0.21727,0.0776 -0.56291,-0.36313 z m 31.12229,-16.20573 c 1.15734,-1.16416 2.16378,-2.11666 2.23654,-2.11666 0.0728,0 -0.81462,0.9525 -1.97196,2.11666 -1.15734,1.16417 -2.16378,2.11667 -2.23654,2.11667 -0.0728,0 0.81462,-0.9525 1.97196,-2.11667 z m -26.88896,-6.01927 c -0.32911,-0.41964 -0.31975,-0.429 0.0999,-0.0999 0.25466,0.19972 0.46302,0.40808 0.46302,0.46302 0,0.21776 -0.21728,0.0776 -0.56292,-0.36313 z m -1.30919,-1.32291 -0.64143,-0.72761 0.7276,0.64143 c 0.68006,0.59952 0.84894,0.81378 0.64143,0.81378 -0.0474,0 -0.37481,-0.32742 -0.7276,-0.7276 z m -27.16,-2.4474 c 0,-0.65484 0.0516,-0.92273 0.11466,-0.59531 0.0631,0.32742 0.0631,0.8632 0,1.19062 -0.0631,0.32743 -0.11466,0.0595 -0.11466,-0.59531 z m 53.10919,-2.51354 c 0.79042,-0.80036 1.49666,-1.45521 1.56942,-1.45521 0.0728,0 -0.51441,0.65485 -1.30484,1.45521 -0.79042,0.80036 -1.49666,1.45521 -1.56942,1.45521 -0.0728,0 0.51442,-0.65485 1.30484,-1.45521 z m 1.85208,-1.81969 c 0,-0.0549 0.20836,-0.2633 0.46303,-0.46302 0.41964,-0.32911 0.429,-0.31975 0.0999,0.0999 -0.34564,0.44073 -0.56292,0.58088 -0.56292,0.36312 z m -24.65586,-2.46209 c 0.191,-0.0764 0.41921,-0.067 0.50712,0.0209 0.0879,0.0879 -0.0684,0.15046 -0.34726,0.13897 -0.30823,-0.0127 -0.37092,-0.0754 -0.15986,-0.15985 z M 170.84596,224.09 c 0,-0.0549 0.20836,-0.2633 0.46302,-0.46302 0.41965,-0.32911 0.429,-0.31975 0.0999,0.0999 -0.34565,0.44073 -0.56292,0.58089 -0.56292,0.36313 z m -54.8025,-10.68188 c -0.32911,-0.41964 -0.31975,-0.429 0.0999,-0.0999 0.25466,0.19972 0.46302,0.40808 0.46302,0.46302 0,0.21776 -0.21728,0.0776 -0.56292,-0.36313 z m -48.563073,-1.85204 c 8.269507,-0.0388 21.723569,-0.0388 29.897917,1e-5 8.174346,0.0388 1.408385,0.0706 -15.03547,0.0706 -16.443854,-1e-5 -23.131957,-0.0318 -14.862447,-0.0706 z M 36.98768,166.88556 c 0.0127,-0.30823 0.07539,-0.37092 0.159853,-0.15986 0.07643,0.191 0.06703,0.4192 -0.02089,0.50712 -0.08792,0.0879 -0.150453,-0.0684 -0.138965,-0.34726 z m 145.99536,-5.33577 c -0.3291,-0.41964 -0.31975,-0.429 0.0999,-0.0999 0.44073,0.34564 0.58089,0.56291 0.36312,0.56291 -0.0549,0 -0.2633,-0.20836 -0.46302,-0.46302 z m -35.04055,-36.71094 c 1.5e-4,-3.78354 0.0373,-5.29456 0.0826,-3.35781 0.0453,1.93674 0.0451,5.03236 -2.7e-4,6.87916 -0.0454,1.8468 -0.0825,0.2622 -0.0823,-3.52135 z M 64.020438,117.6297 c 1.855391,-0.0455 4.891485,-0.0455 6.746875,0 1.855391,0.0455 0.337344,0.0827 -3.373437,0.0827 -3.710782,0 -5.228828,-0.0372 -3.373438,-0.0827 z m 87.592492,-1.2e-4 c 1.86386,-0.0455 4.84042,-0.0454 6.61458,2.7e-4 1.77416,0.0457 0.24918,0.083 -3.38884,0.0828 -3.63802,-1.6e-4 -5.08961,-0.0376 -3.22574,-0.0831 z"
         id="path103" />
      <path
         style="fill:#ffffff;fill-opacity:1;stroke-width:0.264583"
         d="m 34.982417,292.18199 c -5.192445,-1.04223 -8.819474,-4.29547 -10.612893,-9.51918 -0.485213,-1.41328 -0.499607,-3.64296 -0.499607,-77.39062 0,-83.48572 -0.13631,-76.88671 1.660146,-80.37078 1.747862,-3.38983 5.680755,-6.17909 9.584646,-6.79756 0.990501,-0.15692 6.734356,-0.2733 13.544994,-0.27446 l 11.825203,-0.002 0.08105,7.60677 c 0.09116,8.55557 0.113083,8.66017 2.241442,10.69206 3.294724,3.14539 8.509183,2.20912 10.713725,-1.92369 0.601867,-1.1283 0.622049,-1.37969 0.70394,-8.76837 l 0.08431,-7.60677 h 36.740247 36.74025 l 0.0967,7.34218 c 0.10727,8.14515 0.24195,8.90899 1.87013,10.60598 3.63611,3.78977 9.98329,2.42934 11.43958,-2.45191 0.30053,-1.00723 0.38927,-2.92228 0.38927,-8.40041 v -7.09572 l 11.9724,0.009 c 13.43248,0.0104 14.93572,0.14709 17.67635,1.60783 2.08617,1.11192 4.39411,3.41527 5.49878,5.48784 1.67556,3.14366 1.61991,1.7991 1.62496,39.26333 l 0.005,34.0651 -1.91823,0.005 c -9.5131,0.0256 -21.05888,4.29319 -29.30261,10.83088 -10.12807,8.03208 -16.92508,19.90403 -18.68086,32.62883 -0.7615,5.5189 -0.39768,13.65347 0.82829,18.51957 1.75037,6.94754 5.01484,13.71128 9.35116,19.37493 3.02003,3.94445 7.96568,8.44303 12.55922,11.42391 l 2.1599,1.40162 -68.65937,-0.0256 c -37.76266,-0.0141 -69.135629,-0.1212 -69.717712,-0.23803 z m 78.775933,-27.03163 c 1.4987,-0.44902 3.5012,-2.34282 4.08158,-3.86003 1.32378,-3.46056 -0.23452,-7.24089 -3.6148,-8.76924 -1.17494,-0.53123 -1.59112,-0.5384 -31.587015,-0.54414 -22.732006,-0.004 -30.6611,0.0735 -31.446217,0.30873 -1.607579,0.48164 -3.510206,2.34586 -4.156117,4.07221 -0.685409,1.83192 -0.685409,2.88834 0,4.72026 0.614473,1.64233 2.636263,3.68891 4.048456,4.09809 1.329473,0.38521 61.384773,0.36041 62.674113,-0.0259 z m 0.86836,-40.71033 c 2.59878,-1.33747 4.1897,-4.58317 3.5806,-7.30493 -0.44323,-1.98053 -1.71092,-3.69941 -3.46006,-4.69152 l -1.44817,-0.82139 H 82.475126 c -29.591363,0 -30.86099,0.0198 -31.75,0.49425 -2.459252,1.31258 -3.804063,3.12516 -4.140664,5.58093 -0.289972,2.11558 0.859484,4.72085 2.703365,6.12725 1.924986,1.46826 0.436914,1.40833 33.459037,1.34756 l 30.566526,-0.0562 z m 66.40571,-51.93724 c 5.30093,-2.47375 5.31713,-9.96424 0.0267,-12.36682 -1.04937,-0.47657 -3.34466,-0.49293 -69.74446,-0.49712 -47.90325,-0.003 -68.967126,0.0811 -69.677384,0.27834 -0.622758,0.17292 -1.564136,0.81439 -2.424618,1.65217 -2.283296,2.22305 -2.785309,4.9449 -1.416048,7.67763 0.940673,1.87736 2.301242,3.0549 4.195502,3.63111 0.364746,0.11095 31.50036,0.2108 69.190258,0.22189 l 68.52708,0.0202 1.32292,-0.61736 z m 14.41979,112.91088 c -9.10521,-1.10027 -16.2626,-4.35651 -22.30686,-10.14846 -3.38101,-3.23987 -5.62342,-6.25595 -7.58144,-10.19719 -2.84796,-5.73254 -3.80244,-9.79292 -3.82507,-16.27188 -0.0213,-6.0855 0.90684,-10.44095 3.32203,-15.59003 5.15835,-10.99735 15.11996,-18.67342 27.0501,-20.84384 3.24372,-0.59013 9.53492,-0.5881 12.7918,0.004 7.523,1.36795 13.96733,4.78265 19.53739,10.35239 7.08427,7.08386 10.76709,15.89418 10.79008,25.81278 0.0412,17.78656 -12.41644,32.87026 -29.94066,36.25208 -2.68562,0.51827 -7.96444,0.85635 -9.83737,0.63002 z m 0.0709,-19.38549 c 0.47031,-0.29277 6.89013,-6.66054 14.26626,-14.15061 11.76071,-11.94236 13.44856,-13.75723 13.71513,-14.7472 0.86831,-3.22465 -1.24368,-6.30339 -4.48491,-6.53784 -1.16544,-0.0843 -1.76329,0.0163 -2.58393,0.43501 -0.66839,0.34098 -5.265,4.80158 -12.29153,11.92782 l -11.22387,11.38315 -5.81165,-5.83066 c -3.1964,-3.20686 -6.04696,-5.96079 -6.33458,-6.11985 -1.63436,-0.90382 -4.08102,-0.69288 -5.6253,0.485 -1.76185,1.34383 -2.41184,3.97296 -1.51367,6.12258 0.55287,1.32322 15.72822,16.6019 17.18691,17.30396 1.31224,0.63156 3.44874,0.50824 4.70114,-0.27136 z M 60.779292,110.59938 c 0,-8.18978 0.150389,-9.02018 1.961619,-10.831409 1.174916,-1.174915 3.152185,-2.048907 4.635325,-2.048907 1.560049,0 3.492691,0.815292 4.631007,1.953608 1.864384,1.864388 2.001216,2.602388 2.001216,10.793528 v 7.09661 h -6.614583 -6.614584 z m 87.363538,-0.51105 c 0.0779,-7.16317 0.10604,-7.52086 0.67641,-8.5881 0.71341,-1.33491 1.70062,-2.311816 3.04202,-3.010284 3.17547,-1.653463 7.30457,-0.228668 8.82979,3.046824 0.60913,1.30814 0.62481,1.52517 0.62733,8.68386 l 0.003,7.34218 h -6.6297 -6.62969 z"
         id="path101" />
    </g>
    <rect
       style="fill:#707019;fill-opacity:1;stroke-width:0.264583"
       id="rect2028"
       width="80.164871"
       height="61.833279"
       x="-503.34567"
       y="22.237413" />
    <rect
       style="fill:#191970;fill-opacity:1;stroke-width:0.264583"
       id="rect2110"
       width="80.164871"
       height="61.833279"
       x="-391.54175"
       y="21.421291" />
  </g>
</svg>
